<svg xmlns="http://www.w3.org/2000/svg" xmlns:xlink="http://www.w3.org/1999/xlink" fill="none" version="1.1" width="23" height="23" viewBox="0 0 23 23"><g style="mix-blend-mode:passthrough"><g style="opacity:0;mix-blend-mode:passthrough"><rect x="0" y="0" width="23" height="23" rx="0" fill="#000000" fill-opacity="1"/></g><g style="mix-blend-mode:passthrough"><path d="M4.6718775,19.13673125L9.8828075,19.13673125C9.9816375,19.13673125,10.0624975,19.21753125,10.0624975,19.31643125L10.0624975,20.57423125C10.0624975,20.67303125,9.9816375,20.75393125,9.8828075,20.75393125L3.7734375,20.75393125C3.3758785,20.75393125,3.0546875,20.43273125,3.0546875,20.03513125L3.0546875,2.42578125C3.0546875,2.02822225,3.3758785,1.70703125,3.7734375,1.70703125L18.1484875,1.70703125C18.545987500000003,1.70703125,18.8671875,2.02822225,18.8671875,2.42578125L18.8671875,11.05078125C18.8671875,11.14961125,18.7862875,11.23047125,18.6874875,11.23047125L17.4296875,11.23047125C17.3308875,11.23047125,17.2499875,11.14961125,17.2499875,11.05078125L17.2499875,3.32422125L4.6718775,3.32422125L4.6718775,19.13673125ZM15.4530875,7.00781125L15.4530875,5.92969125C15.4530875,5.83086125,15.3722875,5.75000125,15.2734875,5.75000125L6.6484375,5.75000125C6.5496075000000005,5.75000125,6.4687475,5.83086125,6.4687475,5.92969125L6.4687475,7.00781125C6.4687475,7.10664125,6.5496075000000005,7.18750125,6.6484375,7.18750125L15.2734875,7.18750125C15.3722875,7.18750125,15.4530875,7.10664125,15.4530875,7.00781125ZM6.6484375,8.984371249999999C6.5496075000000005,8.984371249999999,6.4687475,9.06523125,6.4687475,9.16406125L6.4687475,10.24219125C6.4687475,10.34101125,6.5496075000000005,10.42187125,6.6484375,10.42187125L10.7812475,10.42187125C10.880077499999999,10.42187125,10.9609375,10.34101125,10.9609375,10.24219125L10.9609375,9.16406125C10.9609375,9.06523125,10.880077499999999,8.984371249999999,10.7812475,8.984371249999999L6.6484375,8.984371249999999Z" fill-rule="evenodd" fill="#17204D" fill-opacity="1"/></g><g style="mix-blend-mode:passthrough"><path d="M19.9453075,16.44140375Q19.9453075,16.56050375,19.9394675,16.67946375Q19.9336275,16.79841375,19.9219475,16.91694375Q19.9102775,17.035463749999998,19.8927975,17.15327375Q19.875327499999997,17.27108375,19.8520875,17.38790375Q19.828857499999998,17.50471375,19.7999175,17.62024375Q19.7709775,17.73577375,19.7364075,17.849743750000002Q19.7018375,17.96371375,19.6617075,18.07584375Q19.6215875,18.18798375,19.5760075,18.29801375Q19.530427500000002,18.40805375,19.4795075,18.51571375Q19.4285875,18.623383750000002,19.3724475,18.72841375Q19.316297499999997,18.83345375,19.2550775,18.93560375Q19.1938475,19.03776375,19.1276775,19.13678375Q19.061507499999998,19.23581375,18.9905575,19.33147375Q18.9196175,19.42714375,18.844057499999998,19.51920375Q18.768497500000002,19.61126375,18.6885175,19.69951375Q18.6085375,19.78776375,18.524317500000002,19.871973750000002Q18.4401075,19.95619375,18.3518575,20.03617375Q18.263617500000002,20.116153750000002,18.1715475,20.191713749999998Q18.0794875,20.26727375,17.9838175,20.33821375Q17.8881575,20.409163749999998,17.7891375,20.47533375Q17.6901075,20.54150375,17.5879475,20.60273375Q17.4857975,20.663953749999997,17.3807575,20.72010375Q17.275727500000002,20.77624375,17.1680575,20.82716375Q17.0603975,20.878083750000002,16.9503575,20.92366375Q16.8403275,20.96924375,16.7281875,21.00936375Q16.6160575,21.04949375,16.502087500000002,21.08406375Q16.3881175,21.11863375,16.2725875,21.14757375Q16.1570575,21.176513749999998,16.0402475,21.19974375Q15.923427499999999,21.222983749999997,15.8056175,21.24045375Q15.6878075,21.25793375,15.5692875,21.26960375Q15.4507575,21.28128375,15.3318075,21.28712375Q15.212847499999999,21.29296375,15.0937475,21.29296375Q14.9746475,21.29296375,14.8556975,21.28712375Q14.7367375,21.28128375,14.6182175,21.26960375Q14.4996875,21.25793375,14.3818775,21.24045375Q14.2640675,21.222983749999997,14.1472575,21.19974375Q14.030447500000001,21.176513749999998,13.9149175,21.14757375Q13.7993875,21.11863375,13.6854175,21.08406375Q13.5714475,21.04949375,13.4593075,21.00936375Q13.3471675,20.96924375,13.2371375,20.92366375Q13.127107500000001,20.878083750000002,13.0194375,20.82716375Q12.9117775,20.77624375,12.8067375,20.72010375Q12.7017075,20.663953749999997,12.5995475,20.60273375Q12.4973975,20.54150375,12.398367499999999,20.47533375Q12.2993375,20.409163749999998,12.2036775,20.33821375Q12.1080175,20.26727375,12.0159475,20.191713749999998Q11.9238875,20.116153750000002,11.8356375,20.03617375Q11.7473975,19.95619375,11.6631775,19.871973750000002Q11.5789575,19.78776375,11.4989775,19.69951375Q11.4189975,19.611273750000002,11.3434375,19.51920375Q11.2678875,19.42714375,11.1969385,19.33147375Q11.1259915,19.23581375,11.0598235,19.13679375Q10.9936555,19.03776375,10.9324255,18.93560375Q10.8711965,18.83345375,10.8150535,18.72841375Q10.7589105,18.623383750000002,10.7079895,18.51571375Q10.6570675,18.40805375,10.6114905,18.29801375Q10.5659135,18.18798375,10.5257905,18.07584375Q10.4856665,17.96371375,10.4510945,17.849743750000002Q10.4165215,17.73577375,10.3875825,17.62024375Q10.3586435,17.50471375,10.3354089,17.38790375Q10.3121738,17.27108375,10.2946983,17.15327375Q10.2772229,17.035463749999998,10.2655491,16.91694375Q10.2538753,16.79841375,10.24803142,16.67946375Q10.2421875,16.56050375,10.2421875,16.44140375Q10.2421875,16.32230375,10.24803142,16.203353749999998Q10.2538753,16.08439375,10.2655491,15.96587375Q10.2772229,15.84734375,10.2946983,15.72953375Q10.3121738,15.61172375,10.3354089,15.49491375Q10.3586435,15.378103750000001,10.3875825,15.26257375Q10.4165215,15.14704375,10.4510945,15.03307375Q10.4856665,14.91910375,10.5257905,14.80696375Q10.5659135,14.69482375,10.6114905,14.58479375Q10.6570675,14.474763750000001,10.7079895,14.36709375Q10.7589105,14.25943375,10.8150535,14.15439375Q10.8711965,14.04936375,10.9324255,13.94720375Q10.9936555,13.84505375,11.0598235,13.746023749999999Q11.1259905,13.64699375,11.1969385,13.55133375Q11.2678875,13.45567375,11.3434375,13.36360375Q11.4189975,13.27154375,11.4989775,13.18329375Q11.5789575,13.09505375,11.6631775,13.01083375Q11.7473975,12.92661375,11.8356375,12.84663375Q11.9238875,12.76665375,12.0159475,12.69109375Q12.1080175,12.61554375,12.2036775,12.54459475Q12.2993375,12.47364775,12.398367499999999,12.40747975Q12.4973975,12.34131175,12.5995475,12.28008175Q12.7017075,12.21885275,12.8067375,12.16270975Q12.9117775,12.10656675,13.0194375,12.05564575Q13.127107500000001,12.00472375,13.2371375,11.95914675Q13.3471675,11.91356975,13.4593075,11.87344675Q13.5714475,11.83332275,13.6854175,11.79875075Q13.7993875,11.76417775,13.9149175,11.73523875Q14.030447500000001,11.70629975,14.1472575,11.68306515Q14.2640675,11.65983005,14.3818775,11.64235455Q14.4996875,11.62487915,14.6182175,11.61320535Q14.7367375,11.60153155,14.8556975,11.59568767Q14.9746475,11.58984375,15.0937475,11.58984375Q15.212847499999999,11.58984375,15.3318075,11.59568767Q15.4507575,11.60153155,15.5692875,11.61320535Q15.6878075,11.62487915,15.8056175,11.64235455Q15.923427499999999,11.65983005,16.0402475,11.68306515Q16.1570575,11.70629975,16.2725875,11.73523875Q16.3881175,11.76417775,16.502087500000002,11.79875075Q16.6160575,11.83332275,16.7281875,11.87344675Q16.8403275,11.91356975,16.9503575,11.95914675Q17.0603975,12.00472375,17.1680575,12.05564575Q17.275727500000002,12.10656675,17.3807575,12.16270975Q17.4857975,12.21885275,17.5879475,12.28008175Q17.6901075,12.34131175,17.7891275,12.40747975Q17.8881575,12.47364675,17.9838175,12.54459475Q18.0794875,12.61554375,18.1715475,12.69109375Q18.2636075,12.76665375,18.3518575,12.84663375Q18.4401075,12.92661375,18.524317500000002,13.01083375Q18.6085375,13.09505375,18.6885175,13.18329375Q18.768497500000002,13.27154375,18.844057499999998,13.36360375Q18.9196175,13.45567375,18.9905575,13.55133375Q19.061507499999998,13.64699375,19.1276775,13.746023749999999Q19.1938475,13.84505375,19.2550775,13.94720375Q19.316297499999997,14.04936375,19.3724475,14.15439375Q19.4285875,14.25943375,19.4795075,14.36709375Q19.530427500000002,14.474763750000001,19.5760075,14.58479375Q19.6215875,14.69482375,19.6617075,14.80696375Q19.7018375,14.91910375,19.7364075,15.03307375Q19.7709775,15.14704375,19.7999175,15.26257375Q19.828857499999998,15.378103750000001,19.8520875,15.49491375Q19.875327499999997,15.61172375,19.8927975,15.72953375Q19.9102775,15.84734375,19.9219475,15.96587375Q19.9336275,16.08439375,19.9394675,16.203353749999998Q19.9453075,16.32230375,19.9453075,16.44140375ZM15.0937475,19.85546375C16.0056675,19.85546375,16.8636675,19.50058375,17.5082975,18.85595375C18.1529275,18.21132375,18.5078075,17.35332375,18.5078075,16.44140375C18.5078075,15.52949375,18.1529275,14.67148375,17.5082975,14.02685375C16.8636675,13.38222375,16.0056675,13.02734375,15.0937475,13.02734375C14.1818375,13.02734375,13.3238275,13.38222375,12.6791975,14.02685375C12.0345675,14.67148375,11.6796875,15.52949375,11.6796875,16.44140375C11.6796875,17.35332375,12.0345675,18.21132375,12.6791975,18.85595375C13.3238275,19.50058375,14.1818375,19.85546375,15.0937475,19.85546375ZM17.0928175,14.73437375L16.0977975,14.73437375C16.0393975,14.73437375,15.9854875,14.761323749999999,15.9517975,14.80849375L14.525527499999999,16.78056375L14.0066775,16.06406375C13.9729875,16.01689375,13.9190875,15.98994375,13.860687500000001,15.98994375L12.8701575,15.98994375C12.7241575,15.98994375,12.6388075,16.15615375,12.7241575,16.27519375L14.3817775,18.56845375C14.4536575,18.66728375,14.5996475,18.66728375,14.6715275,18.56845375L17.2365675,15.01963375C17.3241575,14.90058375,17.2388075,14.73437375,17.0928175,14.73437375Z" fill-rule="evenodd" fill="#17204D" fill-opacity="1"/></g></g></svg>